# xmcd CD database file
#
# Track frame offsets:
#	150
#	18262
#	34883
#	51461
#	71901
#	94994
#	111237
#	125856
#	143733
#	160635
#	185132
#	201618
#	218249
#	236387
#	250906
#	268634
#
# Disc length: 3790 seconds
#
# Revision: 0
# Processed by: cddbd v1.5.2PL0 Copyright (c) Steve Scherf et al.
# Submitted via: CDex 1.70beta2
#
DISCID=fc0ecc10
DTITLE=Sarrah Conner - Green Eyed Soul
DYEAR=2000
DGENRE=Blues
TTITLE0=Let's Get back to bed - Boy!
TTITLE1=If U Were My Man
TTITLE2=French Kissing
TTITLE3=Magic Ride (Whatever U Wish 4)
TTITLE4=From Sarah with Love
TTITLE5=Make U High
TTITLE6=	In My House
TTITLE7=Where Do We Go from Here
TTITLE8=I Can't Lie
TTITLE9=Imagining
TTITLE10=Every Little Thing
TTITLE11=Undressed
TTITLE12=Can't Get None
TTITLE13=Man of My Dreams
TTITLE14=Let Us Come 2gether
TTITLE15=When I Dream
EXTD=YEAR: 2000
EXTT0=
EXTT1=
EXTT2=
EXTT3=
EXTT4=
EXTT5=
EXTT6=
EXTT7=
EXTT8=
EXTT9=
EXTT10=
EXTT11=
EXTT12=
EXTT13=
EXTT14=
EXTT15=
PLAYORDER=
